<svg width="98" height="98" viewBox="0 0 98 98" fill="none" xmlns="http://www.w3.org/2000/svg">
<g opacity="0.6" filter="url(#filter0_d_2355_2349)">
<path d="M82.8243 29.7173L94 29.7173L94 1.08268e-06L64.2827 0L64.2827 11.0911L82.8243 11.0911L82.8243 29.7173Z" fill="white"/>
<path d="M62.7598 49.7817L73.8509 49.7817L73.8509 20.0645L44.2183 20.0645L44.2183 31.2402L62.7598 31.2402L62.7598 49.7817Z" fill="white"/>
<path d="M42.606 69.8494L53.7818 69.8494L53.7818 40.2168L24.0645 40.2168L24.0645 51.3079L42.606 51.3079L42.606 69.8494Z" fill="white"/>
<path d="M22.5416 89.9985L33.7173 89.9985L33.7173 60.2813L4 60.2812L4 71.457L22.5416 71.457L22.5416 89.9985Z" fill="white"/>
</g>
<defs>
<filter id="filter0_d_2355_2349" x="0" y="0" width="98" height="97.998" filterUnits="userSpaceOnUse" color-interpolation-filters="sRGB">
<feFlood flood-opacity="0" result="BackgroundImageFix"/>
<feColorMatrix in="SourceAlpha" type="matrix" values="0 0 0 0 0 0 0 0 0 0 0 0 0 0 0 0 0 0 127 0" result="hardAlpha"/>
<feOffset dy="4"/>
<feGaussianBlur stdDeviation="2"/>
<feComposite in2="hardAlpha" operator="out"/>
<feColorMatrix type="matrix" values="0 0 0 0 0 0 0 0 0 0 0 0 0 0 0 0 0 0 0.25 0"/>
<feBlend mode="normal" in2="BackgroundImageFix" result="effect1_dropShadow_2355_2349"/>
<feBlend mode="normal" in="SourceGraphic" in2="effect1_dropShadow_2355_2349" result="shape"/>
</filter>
</defs>
</svg>
