<svg width="148" height="52" viewBox="0 0 148 52" fill="none" xmlns="http://www.w3.org/2000/svg">
<path d="M51.5704 32H49.9064C49.7197 32 49.565 31.9547 49.4424 31.864C49.325 31.768 49.2397 31.6507 49.1864 31.512L48.3224 29.152H43.5304L42.6664 31.512C42.6237 31.6347 42.5384 31.7467 42.4104 31.848C42.2877 31.9493 42.1357 32 41.9544 32H40.2824L44.8264 20.432H47.0264L51.5704 32ZM44.0824 27.632H47.7704L46.3624 23.784C46.2984 23.6133 46.2264 23.4133 46.1464 23.184C46.0717 22.9493 45.997 22.696 45.9224 22.424C45.8477 22.696 45.773 22.9493 45.6984 23.184C45.629 23.4187 45.5597 23.624 45.4904 23.8L44.0824 27.632ZM53.1738 32V20.112H55.1498V24.8C55.4751 24.4533 55.8431 24.1787 56.2538 23.976C56.6644 23.768 57.1444 23.664 57.6938 23.664C58.1418 23.664 58.5498 23.7573 58.9178 23.944C59.2911 24.1253 59.6111 24.392 59.8778 24.744C60.1498 25.096 60.3578 25.5307 60.5017 26.048C60.6511 26.5653 60.7257 27.16 60.7257 27.832C60.7257 28.4453 60.6431 29.0133 60.4778 29.536C60.3124 30.0587 60.0751 30.512 59.7658 30.896C59.4618 31.28 59.0911 31.5813 58.6538 31.8C58.2218 32.0133 57.7364 32.12 57.1978 32.12C56.9471 32.12 56.7178 32.0933 56.5098 32.04C56.3018 31.992 56.1124 31.9227 55.9418 31.832C55.7711 31.7413 55.6111 31.632 55.4618 31.504C55.3178 31.3707 55.1791 31.224 55.0458 31.064L54.9578 31.616C54.9258 31.7547 54.8698 31.8533 54.7898 31.912C54.7151 31.9707 54.6111 32 54.4778 32H53.1738ZM57.0138 25.2C56.6031 25.2 56.2511 25.288 55.9578 25.464C55.6698 25.6347 55.4004 25.8773 55.1498 26.192V29.872C55.3738 30.1493 55.6164 30.344 55.8778 30.456C56.1444 30.5627 56.4324 30.616 56.7418 30.616C57.0404 30.616 57.3098 30.56 57.5498 30.448C57.7898 30.336 57.9924 30.1653 58.1578 29.936C58.3284 29.7067 58.4591 29.4187 58.5498 29.072C58.6404 28.72 58.6858 28.3067 58.6858 27.832C58.6858 27.352 58.6458 26.9467 58.5658 26.616C58.4911 26.28 58.3818 26.008 58.2378 25.8C58.0938 25.592 57.9178 25.44 57.7098 25.344C57.5071 25.248 57.2751 25.2 57.0138 25.2ZM66.2788 23.664C66.8921 23.664 67.4468 23.7627 67.9428 23.96C68.4441 24.1573 68.8708 24.4373 69.2228 24.8C69.5748 25.1627 69.8468 25.6053 70.0388 26.128C70.2308 26.6507 70.3268 27.2347 70.3268 27.88C70.3268 28.5307 70.2308 29.1173 70.0388 29.64C69.8468 30.1627 69.5748 30.608 69.2228 30.976C68.8708 31.344 68.4441 31.6267 67.9428 31.824C67.4468 32.0213 66.8921 32.12 66.2788 32.12C65.6654 32.12 65.1081 32.0213 64.6068 31.824C64.1054 31.6267 63.6761 31.344 63.3188 30.976C62.9668 30.608 62.6921 30.1627 62.4948 29.64C62.3028 29.1173 62.2068 28.5307 62.2068 27.88C62.2068 27.2347 62.3028 26.6507 62.4948 26.128C62.6921 25.6053 62.9668 25.1627 63.3188 24.8C63.6761 24.4373 64.1054 24.1573 64.6068 23.96C65.1081 23.7627 65.6654 23.664 66.2788 23.664ZM66.2788 30.6C66.9614 30.6 67.4654 30.3707 67.7908 29.912C68.1214 29.4533 68.2868 28.7813 68.2868 27.896C68.2868 27.0107 68.1214 26.336 67.7908 25.872C67.4654 25.408 66.9614 25.176 66.2788 25.176C65.5854 25.176 65.0734 25.4107 64.7428 25.88C64.4121 26.344 64.2468 27.016 64.2468 27.896C64.2468 28.776 64.4121 29.448 64.7428 29.912C65.0734 30.3707 65.5854 30.6 66.2788 30.6ZM74.1765 23.792V29.008C74.1765 29.5093 74.2912 29.8987 74.5205 30.176C74.7552 30.448 75.1045 30.584 75.5685 30.584C75.9098 30.584 76.2298 30.5093 76.5285 30.36C76.8272 30.2053 77.1098 29.9947 77.3765 29.728V23.792H79.3525V32H78.1445C77.8885 32 77.7205 31.88 77.6405 31.64L77.5045 30.984C77.3338 31.1547 77.1578 31.312 76.9765 31.456C76.7952 31.5947 76.6005 31.7147 76.3925 31.816C76.1898 31.912 75.9685 31.9867 75.7285 32.04C75.4938 32.0987 75.2405 32.128 74.9685 32.128C74.5205 32.128 74.1232 32.0533 73.7765 31.904C73.4352 31.7493 73.1472 31.5333 72.9125 31.256C72.6778 30.9787 72.4992 30.6507 72.3765 30.272C72.2592 29.888 72.2005 29.4667 72.2005 29.008V23.792H74.1765ZM84.6583 32.128C83.9489 32.128 83.4023 31.928 83.0182 31.528C82.6343 31.1227 82.4423 30.5653 82.4423 29.856V25.272H81.6103C81.5036 25.272 81.4103 25.2373 81.3303 25.168C81.2556 25.0987 81.2183 24.9947 81.2183 24.856V24.072L82.5383 23.856L82.9543 21.616C82.9756 21.5093 83.0236 21.4267 83.0983 21.368C83.1783 21.3093 83.2769 21.28 83.3943 21.28H84.4183V23.864H86.5783V25.272H84.4183V29.72C84.4183 29.976 84.4823 30.176 84.6103 30.32C84.7383 30.464 84.9089 30.536 85.1223 30.536C85.2449 30.536 85.3463 30.5227 85.4262 30.496C85.5116 30.464 85.5836 30.432 85.6423 30.4C85.7063 30.368 85.7623 30.3387 85.8103 30.312C85.8583 30.28 85.9063 30.264 85.9543 30.264C86.0129 30.264 86.0609 30.28 86.0983 30.312C86.1356 30.3387 86.1756 30.3813 86.2183 30.44L86.8103 31.4C86.5223 31.64 86.1916 31.8213 85.8183 31.944C85.4449 32.0667 85.0583 32.128 84.6583 32.128ZM94.0515 23.792V29.008C94.0515 29.5093 94.1662 29.8987 94.3955 30.176C94.6302 30.448 94.9795 30.584 95.4435 30.584C95.7848 30.584 96.1048 30.5093 96.4035 30.36C96.7022 30.2053 96.9848 29.9947 97.2515 29.728V23.792H99.2275V32H98.0195C97.7635 32 97.5955 31.88 97.5155 31.64L97.3795 30.984C97.2088 31.1547 97.0328 31.312 96.8515 31.456C96.6702 31.5947 96.4755 31.7147 96.2675 31.816C96.0648 31.912 95.8435 31.9867 95.6035 32.04C95.3688 32.0987 95.1155 32.128 94.8435 32.128C94.3955 32.128 93.9982 32.0533 93.6515 31.904C93.3102 31.7493 93.0222 31.5333 92.7875 31.256C92.5528 30.9787 92.3742 30.6507 92.2515 30.272C92.1342 29.888 92.0755 29.4667 92.0755 29.008V23.792H94.0515ZM106.709 25.392C106.656 25.4773 106.6 25.5387 106.541 25.576C106.483 25.608 106.408 25.624 106.317 25.624C106.221 25.624 106.117 25.5973 106.005 25.544C105.899 25.4907 105.773 25.432 105.629 25.368C105.485 25.2987 105.32 25.2373 105.133 25.184C104.952 25.1307 104.736 25.104 104.485 25.104C104.096 25.104 103.789 25.1867 103.565 25.352C103.341 25.5173 103.229 25.7333 103.229 26C103.229 26.176 103.285 26.3253 103.397 26.448C103.515 26.5653 103.667 26.6693 103.853 26.76C104.045 26.8507 104.261 26.9333 104.501 27.008C104.741 27.0773 104.987 27.1547 105.237 27.24C105.488 27.3253 105.733 27.424 105.973 27.536C106.213 27.6427 106.427 27.7813 106.613 27.952C106.805 28.1173 106.957 28.3173 107.069 28.552C107.187 28.7867 107.245 29.0693 107.245 29.4C107.245 29.7947 107.173 30.16 107.029 30.496C106.885 30.8267 106.675 31.1147 106.397 31.36C106.12 31.6 105.776 31.7893 105.365 31.928C104.96 32.0613 104.493 32.128 103.965 32.128C103.683 32.128 103.405 32.1013 103.133 32.048C102.867 32 102.608 31.9307 102.357 31.84C102.112 31.7493 101.883 31.6427 101.669 31.52C101.461 31.3973 101.277 31.264 101.117 31.12L101.573 30.368C101.632 30.2773 101.701 30.208 101.781 30.16C101.861 30.112 101.963 30.088 102.085 30.088C102.208 30.088 102.323 30.1227 102.429 30.192C102.541 30.2613 102.669 30.336 102.813 30.416C102.957 30.496 103.125 30.5707 103.317 30.64C103.515 30.7093 103.763 30.744 104.061 30.744C104.296 30.744 104.496 30.7173 104.661 30.664C104.832 30.6053 104.971 30.5307 105.077 30.44C105.189 30.3493 105.269 30.2453 105.317 30.128C105.371 30.0053 105.397 29.88 105.397 29.752C105.397 29.56 105.339 29.4027 105.221 29.28C105.109 29.1573 104.957 29.0507 104.765 28.96C104.579 28.8693 104.363 28.7893 104.117 28.72C103.877 28.6453 103.629 28.5653 103.373 28.48C103.123 28.3947 102.875 28.296 102.629 28.184C102.389 28.0667 102.173 27.92 101.981 27.744C101.795 27.568 101.643 27.352 101.525 27.096C101.413 26.84 101.357 26.5307 101.357 26.168C101.357 25.832 101.424 25.512 101.557 25.208C101.691 24.904 101.885 24.64 102.141 24.416C102.403 24.1867 102.725 24.0053 103.109 23.872C103.499 23.7333 103.947 23.664 104.453 23.664C105.019 23.664 105.533 23.7573 105.997 23.944C106.461 24.1307 106.848 24.376 107.157 24.68L106.709 25.392Z" fill="url(#paint0_linear_2234_8898)"/>
<rect x="0.5" y="0.5" width="147" height="51" rx="3.5" stroke="url(#paint1_linear_2234_8898)"/>
<defs>
<linearGradient id="paint0_linear_2234_8898" x1="40" y1="52" x2="103.982" y2="-4.54588" gradientUnits="userSpaceOnUse">
<stop stop-color="#FF3F3A"/>
<stop offset="1" stop-color="#F75E05"/>
</linearGradient>
<linearGradient id="paint1_linear_2234_8898" x1="-5.51343e-06" y1="52" x2="52.7722" y2="-49.5075" gradientUnits="userSpaceOnUse">
<stop stop-color="#FF3F3A"/>
<stop offset="1" stop-color="#F75E05"/>
</linearGradient>
</defs>
</svg>
